<svg width="300" height="78" viewBox="0 0 759 198" fill="none" xmlns="http://www.w3.org/2000/svg">
  <style>
        @media (prefers-color-scheme: dark) {
        #motd { fill: #FFFFFF; }
        }
    </style>
<g id="Container">
<g id="motd" fill="#202024">
<path d="M31.3828 68.499V154.5H0V45.666H29.4717L31.3828 68.499ZM27.3594 96.2607L19.4131 96.4619C19.4131 88.8174 20.3184 81.8099 22.1289 75.4395C24.0065 69.002 26.7223 63.4027 30.2764 58.6416C33.8304 53.8805 38.2227 50.1924 43.4531 47.5771C48.7507 44.9619 54.8529 43.6543 61.7598 43.6543C66.5879 43.6543 70.9801 44.3919 74.9365 45.8672C78.8929 47.2754 82.2793 49.5218 85.0957 52.6064C87.9792 55.624 90.1921 59.5804 91.7344 64.4756C93.2767 69.3037 94.0479 75.1042 94.0479 81.877V154.5H62.665V85.6992C62.665 80.8711 62.0615 77.2165 60.8545 74.7354C59.7145 72.1872 58.0381 70.4437 55.8252 69.5049C53.6123 68.5661 50.9635 68.0967 47.8789 68.0967C44.526 68.0967 41.542 68.8343 38.9268 70.3096C36.3786 71.7178 34.2327 73.696 32.4893 76.2441C30.7458 78.7923 29.4382 81.7764 28.5664 85.1963C27.7617 88.6162 27.3594 92.3044 27.3594 96.2607ZM90.8291 94.6514L80.8711 95.4561C80.8711 88.0798 81.7428 81.2399 83.4863 74.9365C85.2298 68.6331 87.8451 63.168 91.332 58.541C94.819 53.847 99.1442 50.1924 104.308 47.5771C109.538 44.9619 115.607 43.6543 122.514 43.6543C127.61 43.6543 132.237 44.3919 136.395 45.8672C140.619 47.3424 144.24 49.723 147.258 53.0088C150.342 56.2946 152.723 60.6198 154.399 65.9844C156.076 71.2819 156.914 77.7865 156.914 85.498V154.5H125.33V85.498C125.33 80.737 124.727 77.1159 123.52 74.6348C122.38 72.1536 120.703 70.4437 118.49 69.5049C116.344 68.5661 113.763 68.0967 110.745 68.0967C107.392 68.0967 104.475 68.8008 101.994 70.209C99.513 71.5501 97.4342 73.4277 95.7578 75.8418C94.0814 78.1888 92.8408 80.9717 92.0361 84.1904C91.2314 87.4092 90.8291 90.8962 90.8291 94.6514Z"/>
<path d="M173.41 101.189V99.0771C173.41 91.0973 174.55 83.7546 176.83 77.0488C179.11 70.276 182.463 64.4085 186.889 59.4463C191.314 54.484 196.746 50.6283 203.184 47.8789C209.621 45.0625 216.997 43.6543 225.312 43.6543C233.762 43.6543 241.205 45.0625 247.643 47.8789C254.147 50.6283 259.612 54.484 264.038 59.4463C268.464 64.4085 271.817 70.276 274.097 77.0488C276.377 83.7546 277.517 91.0973 277.517 99.0771V101.189C277.517 109.102 276.377 116.445 274.097 123.218C271.817 129.924 268.464 135.791 264.038 140.82C259.612 145.783 254.181 149.638 247.743 152.388C241.306 155.137 233.896 156.512 225.514 156.512C217.199 156.512 209.789 155.137 203.284 152.388C196.78 149.638 191.314 145.783 186.889 140.82C182.463 135.791 179.11 129.924 176.83 123.218C174.55 116.445 173.41 109.102 173.41 101.189ZM204.894 99.0771V101.189C204.894 105.481 205.229 109.505 205.899 113.26C206.637 117.015 207.811 120.301 209.42 123.117C211.029 125.934 213.142 128.146 215.757 129.756C218.439 131.298 221.691 132.069 225.514 132.069C229.336 132.069 232.555 131.298 235.17 129.756C237.785 128.146 239.897 125.934 241.507 123.117C243.116 120.301 244.256 117.015 244.927 113.26C245.664 109.505 246.033 105.481 246.033 101.189V99.0771C246.033 94.8525 245.664 90.8962 244.927 87.208C244.256 83.4528 243.116 80.1335 241.507 77.25C239.897 74.3665 237.752 72.1201 235.069 70.5107C232.454 68.9014 229.202 68.0967 225.312 68.0967C221.557 68.0967 218.372 68.9014 215.757 70.5107C213.142 72.1201 211.029 74.3665 209.42 77.25C207.811 80.1335 206.637 83.4528 205.899 87.208C205.229 90.8962 204.894 94.8525 204.894 99.0771Z"/>
<path d="M349.335 45.666V67.6943H284.759V45.666H349.335ZM299.545 18.709H331.028V120.401C331.028 123.419 331.397 125.732 332.135 127.342C332.872 128.951 334.079 130.091 335.756 130.762C337.432 131.365 339.578 131.667 342.193 131.667C344.071 131.667 345.68 131.6 347.021 131.466C348.363 131.332 349.603 131.164 350.743 130.963V153.695C348.061 154.567 345.211 155.238 342.193 155.707C339.176 156.243 335.89 156.512 332.336 156.512C325.563 156.512 319.696 155.405 314.733 153.192C309.838 150.979 306.083 147.493 303.468 142.731C300.853 137.903 299.545 131.633 299.545 123.922V18.709Z"/>
<path d="M427.792 130.158V0H459.376V154.5H431.011L427.792 130.158ZM359.997 101.391V99.2783C359.997 91.0303 360.902 83.5199 362.713 76.7471C364.59 69.9072 367.306 64.0397 370.86 59.1445C374.481 54.1823 378.941 50.36 384.238 47.6777C389.536 44.9954 395.604 43.6543 402.444 43.6543C408.748 43.6543 414.246 45.0625 418.94 47.8789C423.634 50.6283 427.624 54.5176 430.91 59.5469C434.263 64.5091 436.979 70.3766 439.058 77.1494C441.136 83.8551 442.712 91.1309 443.785 98.9766V102.598C442.779 110.108 441.203 117.116 439.058 123.62C436.979 130.125 434.263 135.858 430.91 140.82C427.624 145.715 423.601 149.571 418.84 152.388C414.146 155.137 408.614 156.512 402.243 156.512C395.403 156.512 389.335 155.137 384.037 152.388C378.807 149.638 374.414 145.783 370.86 140.82C367.306 135.858 364.59 130.024 362.713 123.318C360.902 116.613 359.997 109.303 359.997 101.391ZM391.38 99.2783V101.391C391.38 105.682 391.682 109.672 392.285 113.36C392.956 117.049 394.029 120.301 395.504 123.117C396.979 125.934 398.924 128.146 401.338 129.756C403.752 131.298 406.702 132.069 410.189 132.069C414.883 132.069 418.739 130.996 421.757 128.851C424.774 126.638 427.054 123.587 428.597 119.697C430.139 115.808 430.944 111.282 431.011 106.118V95.5566C431.011 91.265 430.575 87.4092 429.703 83.9893C428.831 80.5693 427.524 77.6859 425.78 75.3389C424.104 72.9919 421.992 71.2148 419.443 70.0078C416.895 68.7337 413.878 68.0967 410.391 68.0967C406.971 68.0967 404.054 68.9014 401.64 70.5107C399.226 72.0531 397.247 74.2324 395.705 77.0488C394.23 79.8652 393.123 83.1846 392.386 87.0068C391.715 90.762 391.38 94.8525 391.38 99.2783Z" />
</g>
<g id=".gg" fill="#00875F">
<path d="M483.609 139.613C483.609 135.053 485.219 131.231 488.438 128.146C491.723 125.062 495.981 123.52 501.212 123.52C506.509 123.52 510.734 125.062 513.886 128.146C517.104 131.231 518.714 135.053 518.714 139.613C518.714 144.106 517.104 147.895 513.886 150.979C510.734 154.064 506.509 155.606 501.212 155.606C495.981 155.606 491.723 154.064 488.438 150.979C485.219 147.895 483.609 144.106 483.609 139.613Z"/>
<path d="M611.655 45.666H640.222V150.577C640.222 160.569 637.942 169.051 633.382 176.025C628.889 182.999 622.619 188.297 614.572 191.918C606.525 195.539 597.104 197.35 586.308 197.35C581.614 197.35 576.718 196.713 571.622 195.438C566.526 194.231 561.731 192.387 557.238 189.906C552.745 187.492 548.99 184.408 545.973 180.652L559.351 162.145C562.435 165.632 566.123 168.448 570.415 170.594C574.707 172.807 579.602 173.913 585.101 173.913C590.13 173.913 594.388 173.008 597.875 171.197C601.362 169.387 604.011 166.738 605.821 163.251C607.699 159.764 608.638 155.539 608.638 150.577V71.1143L611.655 45.666ZM538.932 101.391V99.2783C538.932 91.0303 539.938 83.5199 541.949 76.7471C543.961 69.9072 546.878 64.0397 550.7 59.1445C554.59 54.1823 559.25 50.36 564.682 47.6777C570.18 44.9954 576.35 43.6543 583.189 43.6543C590.566 43.6543 596.668 45.0625 601.496 47.8789C606.324 50.6283 610.247 54.5176 613.265 59.5469C616.282 64.5091 618.663 70.3766 620.406 77.1494C622.15 83.8551 623.558 91.1309 624.631 98.9766V102.598C623.558 110.108 622.016 117.116 620.004 123.62C617.992 130.125 615.377 135.858 612.158 140.82C608.939 145.715 604.916 149.571 600.088 152.388C595.327 155.137 589.627 156.512 582.988 156.512C576.215 156.512 570.113 155.137 564.682 152.388C559.25 149.638 554.59 145.783 550.7 140.82C546.878 135.858 543.961 130.024 541.949 123.318C539.938 116.613 538.932 109.303 538.932 101.391ZM570.314 99.2783V101.391C570.314 105.682 570.717 109.672 571.521 113.36C572.393 117.049 573.667 120.301 575.344 123.117C577.087 125.934 579.233 128.146 581.781 129.756C584.396 131.298 587.448 132.069 590.935 132.069C596.031 132.069 600.155 130.996 603.307 128.851C606.525 126.638 608.872 123.587 610.348 119.697C611.89 115.808 612.695 111.282 612.762 106.118V95.5566C612.762 91.265 612.326 87.4092 611.454 83.9893C610.582 80.5693 609.275 77.6859 607.531 75.3389C605.855 72.9919 603.642 71.2148 600.893 70.0078C598.21 68.7337 594.958 68.0967 591.136 68.0967C587.716 68.0967 584.698 68.9014 582.083 70.5107C579.468 72.0531 577.288 74.2324 575.545 77.0488C573.801 79.8652 572.494 83.1846 571.622 87.0068C570.75 90.762 570.314 94.8525 570.314 99.2783Z"/>
<path d="M729.743 45.666H758.31V150.577C758.31 160.569 756.03 169.051 751.47 176.025C746.977 182.999 740.707 188.297 732.66 191.918C724.613 195.539 715.192 197.35 704.396 197.35C699.701 197.35 694.806 196.713 689.71 195.438C684.614 194.231 679.819 192.387 675.326 189.906C670.833 187.492 667.078 184.408 664.061 180.652L677.438 162.145C680.523 165.632 684.211 168.448 688.503 170.594C692.795 172.807 697.69 173.913 703.188 173.913C708.218 173.913 712.476 173.008 715.963 171.197C719.45 169.387 722.099 166.738 723.909 163.251C725.787 159.764 726.726 155.539 726.726 150.577V71.1143L729.743 45.666ZM657.02 101.391V99.2783C657.02 91.0303 658.025 83.5199 660.037 76.7471C662.049 69.9072 664.966 64.0397 668.788 59.1445C672.677 54.1823 677.338 50.36 682.77 47.6777C688.268 44.9954 694.438 43.6543 701.277 43.6543C708.654 43.6543 714.756 45.0625 719.584 47.8789C724.412 50.6283 728.335 54.5176 731.353 59.5469C734.37 64.5091 736.751 70.3766 738.494 77.1494C740.238 83.8551 741.646 91.1309 742.719 98.9766V102.598C741.646 110.108 740.104 117.116 738.092 123.62C736.08 130.125 733.465 135.858 730.246 140.82C727.027 145.715 723.004 149.571 718.176 152.388C713.415 155.137 707.715 156.512 701.076 156.512C694.303 156.512 688.201 155.137 682.77 152.388C677.338 149.638 672.677 145.783 668.788 140.82C664.966 135.858 662.049 130.024 660.037 123.318C658.025 116.613 657.02 109.303 657.02 101.391ZM688.402 99.2783V101.391C688.402 105.682 688.805 109.672 689.609 113.36C690.481 117.049 691.755 120.301 693.432 123.117C695.175 125.934 697.321 128.146 699.869 129.756C702.484 131.298 705.535 132.069 709.022 132.069C714.119 132.069 718.243 130.996 721.395 128.851C724.613 126.638 726.96 123.587 728.436 119.697C729.978 115.808 730.783 111.282 730.85 106.118V95.5566C730.85 91.265 730.414 87.4092 729.542 83.9893C728.67 80.5693 727.363 77.6859 725.619 75.3389C723.943 72.9919 721.73 71.2148 718.98 70.0078C716.298 68.7337 713.046 68.0967 709.224 68.0967C705.804 68.0967 702.786 68.9014 700.171 70.5107C697.556 72.0531 695.376 74.2324 693.633 77.0488C691.889 79.8652 690.582 83.1846 689.71 87.0068C688.838 90.762 688.402 94.8525 688.402 99.2783Z"/>
</g>
</g>
</svg>
